<?xml version="1.0" encoding="UTF-8"?>
<!-- Do not edit this file with editors other than draw.io -->
<!DOCTYPE svg PUBLIC "-//W3C//DTD SVG 1.1//EN" "http://www.w3.org/Graphics/SVG/1.1/DTD/svg11.dtd">
<svg xmlns="http://www.w3.org/2000/svg" style="background: transparent; background-color: transparent; color-scheme: light dark;" xmlns:xlink="http://www.w3.org/1999/xlink" version="1.1" width="638" height="563" viewBox="0 0 638 563" content="&lt;mxfile host=&quot;app.diagrams.net&quot; agent=&quot;Mozilla/5.0 (Windows NT 10.0; Win64; x64) AppleWebKit/537.36 (KHTML, like Gecko) Chrome/146.0.0.0 Safari/537.36&quot; version=&quot;29.4.0&quot;&gt;&#10;  &lt;diagram name=&quot;Page-1&quot; id=&quot;xuAxJ_uJw0Fslg3iG5st&quot;&gt;&#10;    &lt;mxGraphModel dx=&quot;828&quot; dy=&quot;1057&quot; grid=&quot;1&quot; gridSize=&quot;10&quot; guides=&quot;1&quot; tooltips=&quot;1&quot; connect=&quot;1&quot; arrows=&quot;1&quot; fold=&quot;1&quot; page=&quot;1&quot; pageScale=&quot;1&quot; pageWidth=&quot;850&quot; pageHeight=&quot;1100&quot; math=&quot;0&quot; shadow=&quot;1&quot;&gt;&#10;      &lt;root&gt;&#10;        &lt;mxCell id=&quot;0&quot; /&gt;&#10;        &lt;mxCell id=&quot;1&quot; parent=&quot;0&quot; /&gt;&#10;        &lt;mxCell id=&quot;bQjKKQ9CvDbdujaKF0kK-3&quot; edge=&quot;1&quot; parent=&quot;1&quot; style=&quot;edgeStyle=orthogonalEdgeStyle;rounded=0;orthogonalLoop=1;jettySize=auto;html=1;entryX=0;entryY=0.5;entryDx=0;entryDy=0;flowAnimation=1;shadow=1;strokeWidth=2;&quot;&gt;&#10;          &lt;mxGeometry relative=&quot;1&quot; as=&quot;geometry&quot;&gt;&#10;            &lt;mxPoint x=&quot;280&quot; y=&quot;230&quot; as=&quot;sourcePoint&quot; /&gt;&#10;            &lt;mxPoint x=&quot;390&quot; y=&quot;230&quot; as=&quot;targetPoint&quot; /&gt;&#10;          &lt;/mxGeometry&gt;&#10;        &lt;/mxCell&gt;&#10;        &lt;mxCell id=&quot;bQjKKQ9CvDbdujaKF0kK-10&quot; edge=&quot;1&quot; parent=&quot;1&quot; style=&quot;edgeStyle=orthogonalEdgeStyle;rounded=0;orthogonalLoop=1;jettySize=auto;html=1;flowAnimation=1;shadow=1;strokeWidth=2;&quot; value=&quot;&quot;&gt;&#10;          &lt;mxGeometry relative=&quot;1&quot; as=&quot;geometry&quot;&gt;&#10;            &lt;mxPoint x=&quot;450&quot; y=&quot;260&quot; as=&quot;sourcePoint&quot; /&gt;&#10;            &lt;mxPoint x=&quot;450&quot; y=&quot;320&quot; as=&quot;targetPoint&quot; /&gt;&#10;          &lt;/mxGeometry&gt;&#10;        &lt;/mxCell&gt;&#10;        &lt;mxCell id=&quot;bQjKKQ9CvDbdujaKF0kK-8&quot; parent=&quot;1&quot; style=&quot;points=[];aspect=fixed;html=1;align=center;shadow=0;dashed=0;fillColor=#FF6A00;strokeColor=none;shape=mxgraph.alibaba_cloud.user;&quot; value=&quot;&quot; vertex=&quot;1&quot;&gt;&#10;          &lt;mxGeometry height=&quot;60&quot; width=&quot;60&quot; x=&quot;210&quot; y=&quot;200&quot; as=&quot;geometry&quot; /&gt;&#10;        &lt;/mxCell&gt;&#10;        &lt;mxCell id=&quot;bQjKKQ9CvDbdujaKF0kK-12&quot; edge=&quot;1&quot; parent=&quot;1&quot; style=&quot;edgeStyle=orthogonalEdgeStyle;rounded=0;orthogonalLoop=1;jettySize=auto;html=1;flowAnimation=1;shadow=1;strokeWidth=2;exitX=0.5;exitY=1;exitDx=0;exitDy=0;entryX=0.5;entryY=0;entryDx=0;entryDy=0;&quot; value=&quot;&quot;&gt;&#10;          &lt;mxGeometry relative=&quot;1&quot; as=&quot;geometry&quot;&gt;&#10;            &lt;mxPoint x=&quot;450&quot; y=&quot;380&quot; as=&quot;sourcePoint&quot; /&gt;&#10;            &lt;mxPoint x=&quot;450&quot; y=&quot;480&quot; as=&quot;targetPoint&quot; /&gt;&#10;          &lt;/mxGeometry&gt;&#10;        &lt;/mxCell&gt;&#10;        &lt;mxCell id=&quot;bQjKKQ9CvDbdujaKF0kK-13&quot; parent=&quot;1&quot; style=&quot;rounded=1;whiteSpace=wrap;html=1;fillColor=light-dark(#ef5b0b, #ededed);fontColor=light-dark(#f7f7f7, #ededed);fontStyle=1;fontSize=15;fontFamily=Comic Sans MS;textShadow=1;gradientColor=light-dark(#867e7e, #ededed);gradientDirection=south;glass=0;shadow=1;arcSize=22;sketch=1;curveFitting=1;jiggle=2;labelBorderColor=none;labelBackgroundColor=none;convertToSvg=0;spacingTop=0;&quot; value=&quot;PORTFOLIO&quot; vertex=&quot;1&quot;&gt;&#10;          &lt;mxGeometry height=&quot;60&quot; width=&quot;120&quot; x=&quot;390&quot; y=&quot;200&quot; as=&quot;geometry&quot; /&gt;&#10;        &lt;/mxCell&gt;&#10;        &lt;mxCell id=&quot;bQjKKQ9CvDbdujaKF0kK-14&quot; parent=&quot;1&quot; style=&quot;rounded=1;whiteSpace=wrap;html=1;fillColor=light-dark(#ef5b0b, #ededed);fontColor=light-dark(#f7f7f7, #ededed);fontStyle=1;fontSize=15;fontFamily=Comic Sans MS;textShadow=1;gradientColor=light-dark(#867e7e, #ededed);gradientDirection=south;glass=0;shadow=1;arcSize=22;sketch=1;curveFitting=1;jiggle=2;labelBorderColor=none;labelBackgroundColor=none;convertToSvg=0;spacingTop=0;&quot; value=&quot;AI AGENTS&quot; vertex=&quot;1&quot;&gt;&#10;          &lt;mxGeometry height=&quot;60&quot; width=&quot;120&quot; x=&quot;390&quot; y=&quot;320&quot; as=&quot;geometry&quot; /&gt;&#10;        &lt;/mxCell&gt;&#10;        &lt;mxCell id=&quot;bQjKKQ9CvDbdujaKF0kK-15&quot; parent=&quot;1&quot; style=&quot;text;whiteSpace=wrap;strokeColor=none;fillColor=none;align=center;verticalAlign=middle;rounded=0;rotation=270;fontStyle=1;labelBorderColor=none;textShadow=0;labelBackgroundColor=none;html=1;fontFamily=Comic Sans MS;&quot; value=&quot;TRY NOW&quot; vertex=&quot;1&quot;&gt;&#10;          &lt;mxGeometry height=&quot;30&quot; width=&quot;80&quot; x=&quot;390&quot; y=&quot;410&quot; as=&quot;geometry&quot; /&gt;&#10;        &lt;/mxCell&gt;&#10;        &lt;mxCell id=&quot;bQjKKQ9CvDbdujaKF0kK-16&quot; parent=&quot;1&quot; style=&quot;rounded=1;whiteSpace=wrap;html=1;fillColor=light-dark(#ef5b0b, #ededed);fontColor=light-dark(#f7f7f7, #ededed);fontStyle=1;fontSize=15;fontFamily=Comic Sans MS;textShadow=1;gradientColor=light-dark(#867e7e, #ededed);gradientDirection=south;glass=0;shadow=1;arcSize=22;sketch=1;curveFitting=1;jiggle=2;labelBorderColor=none;labelBackgroundColor=none;convertToSvg=0;spacingTop=0;&quot; value=&quot;AGENT UI&quot; vertex=&quot;1&quot;&gt;&#10;          &lt;mxGeometry height=&quot;60&quot; width=&quot;120&quot; x=&quot;390&quot; y=&quot;480&quot; as=&quot;geometry&quot; /&gt;&#10;        &lt;/mxCell&gt;&#10;        &lt;mxCell id=&quot;bQjKKQ9CvDbdujaKF0kK-17&quot; parent=&quot;1&quot; style=&quot;rounded=1;whiteSpace=wrap;html=1;fillColor=light-dark(#ef5b0b, #ededed);fontColor=light-dark(#f7f7f7, #ededed);fontStyle=1;fontSize=15;fontFamily=Comic Sans MS;textShadow=1;gradientColor=light-dark(#867e7e, #ededed);gradientDirection=south;glass=0;shadow=1;arcSize=22;sketch=1;curveFitting=1;jiggle=2;labelBorderColor=none;labelBackgroundColor=none;convertToSvg=0;spacingTop=0;&quot; value=&quot;BOOMI INTEGRATION&quot; vertex=&quot;1&quot;&gt;&#10;          &lt;mxGeometry height=&quot;60&quot; width=&quot;120&quot; x=&quot;550&quot; y=&quot;480&quot; as=&quot;geometry&quot; /&gt;&#10;        &lt;/mxCell&gt;&#10;        &lt;mxCell id=&quot;bQjKKQ9CvDbdujaKF0kK-20&quot; edge=&quot;1&quot; parent=&quot;1&quot; source=&quot;bQjKKQ9CvDbdujaKF0kK-16&quot; style=&quot;edgeStyle=orthogonalEdgeStyle;rounded=0;orthogonalLoop=1;jettySize=auto;html=1;flowAnimation=1;shadow=1;strokeWidth=2;exitX=1;exitY=0.5;exitDx=0;exitDy=0;entryX=0;entryY=0.5;entryDx=0;entryDy=0;&quot; target=&quot;bQjKKQ9CvDbdujaKF0kK-17&quot; value=&quot;&quot;&gt;&#10;          &lt;mxGeometry relative=&quot;1&quot; as=&quot;geometry&quot;&gt;&#10;            &lt;mxPoint x=&quot;750&quot; y=&quot;470&quot; as=&quot;sourcePoint&quot; /&gt;&#10;            &lt;mxPoint x=&quot;610&quot; y=&quot;510&quot; as=&quot;targetPoint&quot; /&gt;&#10;          &lt;/mxGeometry&gt;&#10;        &lt;/mxCell&gt;&#10;        &lt;mxCell id=&quot;bQjKKQ9CvDbdujaKF0kK-21&quot; parent=&quot;1&quot; style=&quot;rounded=1;whiteSpace=wrap;html=1;fillColor=light-dark(#ef5b0b, #ededed);fontColor=light-dark(#f7f7f7, #ededed);fontStyle=1;fontSize=15;fontFamily=Comic Sans MS;textShadow=1;gradientColor=light-dark(#867e7e, #ededed);gradientDirection=south;glass=0;shadow=1;arcSize=22;sketch=1;curveFitting=1;jiggle=2;labelBorderColor=none;labelBackgroundColor=none;convertToSvg=0;spacingTop=0;&quot; value=&quot;BOOMI AI&quot; vertex=&quot;1&quot;&gt;&#10;          &lt;mxGeometry height=&quot;60&quot; width=&quot;120&quot; x=&quot;710&quot; y=&quot;570&quot; as=&quot;geometry&quot; /&gt;&#10;        &lt;/mxCell&gt;&#10;        &lt;mxCell id=&quot;bQjKKQ9CvDbdujaKF0kK-22&quot; edge=&quot;1&quot; parent=&quot;1&quot; source=&quot;bQjKKQ9CvDbdujaKF0kK-17&quot; style=&quot;edgeStyle=orthogonalEdgeStyle;rounded=0;orthogonalLoop=1;jettySize=auto;html=1;flowAnimation=1;shadow=1;strokeWidth=2;exitX=1;exitY=0.5;exitDx=0;exitDy=0;&quot; value=&quot;&quot;&gt;&#10;          &lt;mxGeometry relative=&quot;1&quot; as=&quot;geometry&quot;&gt;&#10;            &lt;Array as=&quot;points&quot;&gt;&#10;              &lt;mxPoint x=&quot;770&quot; y=&quot;510&quot; /&gt;&#10;            &lt;/Array&gt;&#10;            &lt;mxPoint x=&quot;540&quot; y=&quot;590&quot; as=&quot;sourcePoint&quot; /&gt;&#10;            &lt;mxPoint x=&quot;770&quot; y=&quot;570&quot; as=&quot;targetPoint&quot; /&gt;&#10;          &lt;/mxGeometry&gt;&#10;        &lt;/mxCell&gt;&#10;        &lt;mxCell id=&quot;bQjKKQ9CvDbdujaKF0kK-23&quot; parent=&quot;1&quot; style=&quot;rounded=1;whiteSpace=wrap;html=1;fillColor=light-dark(#ef5b0b, #ededed);fontColor=light-dark(#f7f7f7, #ededed);fontStyle=1;fontSize=15;fontFamily=Comic Sans MS;textShadow=1;gradientColor=light-dark(#867e7e, #ededed);gradientDirection=south;glass=0;shadow=1;arcSize=22;sketch=1;curveFitting=1;jiggle=2;labelBorderColor=none;labelBackgroundColor=none;convertToSvg=0;spacingTop=0;&quot; value=&quot;BOOMI INTEGRATION&quot; vertex=&quot;1&quot;&gt;&#10;          &lt;mxGeometry height=&quot;60&quot; width=&quot;120&quot; x=&quot;550&quot; y=&quot;680&quot; as=&quot;geometry&quot; /&gt;&#10;        &lt;/mxCell&gt;&#10;        &lt;mxCell id=&quot;bQjKKQ9CvDbdujaKF0kK-25&quot; edge=&quot;1&quot; parent=&quot;1&quot; source=&quot;bQjKKQ9CvDbdujaKF0kK-21&quot; style=&quot;edgeStyle=orthogonalEdgeStyle;rounded=0;orthogonalLoop=1;jettySize=auto;html=1;flowAnimation=1;shadow=1;strokeWidth=2;exitX=0.5;exitY=1;exitDx=0;exitDy=0;entryX=1;entryY=0.5;entryDx=0;entryDy=0;&quot; target=&quot;bQjKKQ9CvDbdujaKF0kK-23&quot; value=&quot;&quot;&gt;&#10;          &lt;mxGeometry relative=&quot;1&quot; as=&quot;geometry&quot;&gt;&#10;            &lt;Array as=&quot;points&quot;&gt;&#10;              &lt;mxPoint x=&quot;770&quot; y=&quot;710&quot; /&gt;&#10;            &lt;/Array&gt;&#10;            &lt;mxPoint x=&quot;730&quot; y=&quot;690&quot; as=&quot;sourcePoint&quot; /&gt;&#10;            &lt;mxPoint x=&quot;830&quot; y=&quot;750&quot; as=&quot;targetPoint&quot; /&gt;&#10;          &lt;/mxGeometry&gt;&#10;        &lt;/mxCell&gt;&#10;        &lt;mxCell id=&quot;bQjKKQ9CvDbdujaKF0kK-26&quot; edge=&quot;1&quot; parent=&quot;1&quot; source=&quot;bQjKKQ9CvDbdujaKF0kK-23&quot; style=&quot;edgeStyle=orthogonalEdgeStyle;rounded=0;orthogonalLoop=1;jettySize=auto;html=1;flowAnimation=1;shadow=1;strokeWidth=2;exitX=0;exitY=0.5;exitDx=0;exitDy=0;entryX=0.5;entryY=1;entryDx=0;entryDy=0;&quot; target=&quot;bQjKKQ9CvDbdujaKF0kK-16&quot; value=&quot;&quot;&gt;&#10;          &lt;mxGeometry relative=&quot;1&quot; as=&quot;geometry&quot;&gt;&#10;            &lt;Array as=&quot;points&quot;&gt;&#10;              &lt;mxPoint x=&quot;450&quot; y=&quot;710&quot; /&gt;&#10;            &lt;/Array&gt;&#10;            &lt;mxPoint x=&quot;480&quot; y=&quot;730&quot; as=&quot;sourcePoint&quot; /&gt;&#10;            &lt;mxPoint x=&quot;440&quot; y=&quot;550&quot; as=&quot;targetPoint&quot; /&gt;&#10;          &lt;/mxGeometry&gt;&#10;        &lt;/mxCell&gt;&#10;        &lt;mxCell id=&quot;bQjKKQ9CvDbdujaKF0kK-27&quot; parent=&quot;1&quot; style=&quot;text;html=1;whiteSpace=wrap;strokeColor=none;fillColor=none;align=center;verticalAlign=middle;rounded=0;&quot; value=&quot;&amp;lt;b&amp;gt;&amp;lt;font face=&amp;quot;Comic Sans MS&amp;quot;&amp;gt;FORMAT PROMPT&amp;lt;/font&amp;gt;&amp;lt;/b&amp;gt;&quot; vertex=&quot;1&quot;&gt;&#10;          &lt;mxGeometry height=&quot;40&quot; width=&quot;90&quot; x=&quot;680&quot; y=&quot;470&quot; as=&quot;geometry&quot; /&gt;&#10;        &lt;/mxCell&gt;&#10;        &lt;mxCell id=&quot;bQjKKQ9CvDbdujaKF0kK-28&quot; parent=&quot;1&quot; style=&quot;text;html=1;whiteSpace=wrap;strokeColor=none;fillColor=none;align=center;verticalAlign=middle;rounded=0;&quot; value=&quot;&amp;lt;b&amp;gt;&amp;lt;font face=&amp;quot;Comic Sans MS&amp;quot;&amp;gt;RAW RESPONSE&amp;lt;/font&amp;gt;&amp;lt;/b&amp;gt;&quot; vertex=&quot;1&quot;&gt;&#10;          &lt;mxGeometry height=&quot;40&quot; width=&quot;90&quot; x=&quot;680&quot; y=&quot;660&quot; as=&quot;geometry&quot; /&gt;&#10;        &lt;/mxCell&gt;&#10;        &lt;mxCell id=&quot;bQjKKQ9CvDbdujaKF0kK-29&quot; parent=&quot;1&quot; style=&quot;text;html=1;whiteSpace=wrap;strokeColor=none;fillColor=none;align=center;verticalAlign=middle;rounded=0;rotation=270;&quot; value=&quot;&amp;lt;b&amp;gt;&amp;lt;font face=&amp;quot;Comic Sans MS&amp;quot;&amp;gt;BEAUTIFY RESPONSE&amp;lt;/font&amp;gt;&amp;lt;/b&amp;gt;&quot; vertex=&quot;1&quot;&gt;&#10;          &lt;mxGeometry height=&quot;40&quot; width=&quot;170&quot; x=&quot;340&quot; y=&quot;610&quot; as=&quot;geometry&quot; /&gt;&#10;        &lt;/mxCell&gt;&#10;      &lt;/root&gt;&#10;    &lt;/mxGraphModel&gt;&#10;  &lt;/diagram&gt;&#10;&lt;/mxfile&gt;&#10;"><defs><style>@keyframes ge-flow-animation-qIgXZG3Ro4BcdYmjVpFU {&#xa;  to {&#xa;    stroke-dashoffset: 0;&#xa;  }&#xa;}</style><linearGradient x1="0%" y1="0%" x2="0%" y2="100%" id="drawio-svg-H3D5OLFwv0mKC2yJHsmF-gradient-light-dark_ef5b0b_ededed_-1-light-dark_867e7e_ededed_-1-s-0"><stop offset="0%" stop-color="#ef5b0b" stop-opacity="1" style="stop-color: light-dark(rgb(239, 91, 11), rgb(237, 237, 237)); stop-opacity: 1;"/><stop offset="100%" stop-color="#867e7e" stop-opacity="1" style="stop-color: light-dark(rgb(134, 126, 126), rgb(237, 237, 237)); stop-opacity: 1;"/></linearGradient></defs><g style="filter: drop-shadow(light-dark(rgba(61, 69, 116, 0.4), rgba(168, 175, 216, 0.4)) 3px 3px 1.7px);"><g data-cell-id="0"><g data-cell-id="1"><g data-cell-id="bQjKKQ9CvDbdujaKF0kK-3"><g style="filter: drop-shadow(light-dark(rgba(0, 0, 0, 0.25), rgba(237, 237, 237, 0.25)) 2px 3px 2px);"><path d="M 70 34 L 171.76 34" fill="none" stroke="#000000" stroke-width="2" stroke-miterlimit="10" pointer-events="stroke" stroke-dasharray="8" style="stroke: light-dark(rgb(0, 0, 0), rgb(255, 255, 255)); animation: 500ms linear 0s infinite normal none running ge-flow-animation-qIgXZG3Ro4BcdYmjVpFU; stroke-dashoffset: 16;"/><path d="M 177.76 34 L 169.76 38 L 171.76 34 L 169.76 30 Z" fill="#000000" stroke="#000000" stroke-width="2" stroke-miterlimit="10" pointer-events="all" style="fill: light-dark(rgb(0, 0, 0), rgb(255, 255, 255)); stroke: light-dark(rgb(0, 0, 0), rgb(255, 255, 255));"/></g></g><g data-cell-id="bQjKKQ9CvDbdujaKF0kK-10"><g style="filter: drop-shadow(light-dark(rgba(0, 0, 0, 0.25), rgba(237, 237, 237, 0.25)) 2px 3px 2px);"><path d="M 240 64 L 240 115.76" fill="none" stroke="#000000" stroke-width="2" stroke-miterlimit="10" pointer-events="stroke" stroke-dasharray="8" style="stroke: light-dark(rgb(0, 0, 0), rgb(255, 255, 255)); animation: 500ms linear 0s infinite normal none running ge-flow-animation-qIgXZG3Ro4BcdYmjVpFU; stroke-dashoffset: 16;"/><path d="M 240 121.76 L 236 113.76 L 240 115.76 L 244 113.76 Z" fill="#000000" stroke="#000000" stroke-width="2" stroke-miterlimit="10" pointer-events="all" style="fill: light-dark(rgb(0, 0, 0), rgb(255, 255, 255)); stroke: light-dark(rgb(0, 0, 0), rgb(255, 255, 255));"/></g></g><g data-cell-id="bQjKKQ9CvDbdujaKF0kK-8"><g transform="translate(0.5,0.5)"><path d="M 50.99 48.83 Q 50.26 43.64 48.06 40.21 Q 45.87 36.78 41.89 36.24 Q 39.64 38.72 36.55 40.11 Q 33.45 41.5 30 41.5 Q 26.55 41.5 23.45 40.11 Q 20.36 38.72 18.11 36.24 Q 14.13 36.78 11.94 40.21 Q 9.74 43.64 9.01 48.83 Q 12.56 53.85 18.08 56.78 Q 23.6 59.71 30 59.71 Q 36.4 59.71 41.92 56.78 Q 47.44 53.85 50.99 48.83 Z M 42.86 25.43 Q 42.86 20.1 39.09 16.34 Q 35.32 12.57 30 12.57 Q 24.68 12.57 20.91 16.34 Q 17.14 20.1 17.14 25.43 Q 17.14 30.75 20.91 34.52 Q 24.68 38.29 30 38.29 Q 35.32 38.29 39.09 34.52 Q 42.86 30.75 42.86 25.43 Z M 60 34 Q 60 40.09 57.62 45.63 Q 55.25 51.18 51.24 55.21 Q 47.24 59.25 41.69 61.62 Q 36.13 64 30 64 Q 23.91 64 18.35 61.62 Q 12.79 59.25 8.77 55.23 Q 4.75 51.21 2.38 45.65 Q 0 40.09 0 34 Q 0 27.91 2.38 22.35 Q 4.75 16.79 8.77 12.77 Q 12.79 8.75 18.35 6.38 Q 23.91 4 30 4 Q 36.09 4 41.65 6.38 Q 47.21 8.75 51.23 12.77 Q 55.25 16.79 57.62 22.35 Q 60 27.91 60 34 Z" fill="#ff6a00" stroke="none" pointer-events="all" style="fill: light-dark(rgb(255, 106, 0), rgb(233, 105, 14));"/></g></g><g data-cell-id="bQjKKQ9CvDbdujaKF0kK-12"><g style="filter: drop-shadow(light-dark(rgba(0, 0, 0, 0.25), rgba(237, 237, 237, 0.25)) 2px 3px 2px);"><path d="M 240 184 L 240 275.76" fill="none" stroke="#000000" stroke-width="2" stroke-miterlimit="10" pointer-events="stroke" stroke-dasharray="8" style="stroke: light-dark(rgb(0, 0, 0), rgb(255, 255, 255)); animation: 500ms linear 0s infinite normal none running ge-flow-animation-qIgXZG3Ro4BcdYmjVpFU; stroke-dashoffset: 16;"/><path d="M 240 281.76 L 236 273.76 L 240 275.76 L 244 273.76 Z" fill="#000000" stroke="#000000" stroke-width="2" stroke-miterlimit="10" pointer-events="all" style="fill: light-dark(rgb(0, 0, 0), rgb(255, 255, 255)); stroke: light-dark(rgb(0, 0, 0), rgb(255, 255, 255));"/></g></g><g data-cell-id="bQjKKQ9CvDbdujaKF0kK-13"><g transform="translate(0.5,0.5)" style="filter: drop-shadow(light-dark(rgba(0, 0, 0, 0.25), rgba(237, 237, 237, 0.25)) 2px 3px 2px);"><rect x="180" y="4" width="120" height="60" rx="13.2" ry="13.2" fill="none" stroke="none" pointer-events="all"/><path d="M 193.2 4 C 222.88 8.91 247.93 3.93 286.8 4 C 293.18 1.57 298.82 13.39 300 17.2 C 303.89 27.66 296.65 32.84 300 50.8 C 296.78 56.14 295.92 66.21 286.8 64 C 252.45 68.57 217.42 59.25 193.2 64 C 182.28 68.71 180.83 57.52 180 50.8 C 180.69 41.2 184.61 29.81 180 17.2 C 179.88 5.69 181.37 5.36 193.2 4" fill="url(#drawio-svg-H3D5OLFwv0mKC2yJHsmF-gradient-light-dark_ef5b0b_ededed_-1-light-dark_867e7e_ededed_-1-s-0)" stroke="none" pointer-events="all" style="fill: url(&quot;#drawio-svg-H3D5OLFwv0mKC2yJHsmF-gradient-light-dark_ef5b0b_ededed_-1-light-dark_867e7e_ededed_-1-s-0&quot;);"/><path d="M 193.2 4 C 225.07 7.96 261.21 4.71 286.8 4 M 193.2 4 C 216.66 6.95 240.42 5.5 286.8 4 M 286.8 4 C 295.84 1.64 303.43 10.24 300 17.2 M 286.8 4 C 291.84 7.86 301.62 5.18 300 17.2 M 300 17.2 C 301.76 27.29 302.31 42.99 300 50.8 M 300 17.2 C 298.22 26.87 299.99 33.24 300 50.8 M 300 50.8 C 298.55 62.3 295.07 64.01 286.8 64 M 300 50.8 C 295.86 60.85 292.31 63.38 286.8 64 M 286.8 64 C 262.26 62.74 238.48 61.77 193.2 64 M 286.8 64 C 251.52 63.13 212.25 63.64 193.2 64 M 193.2 64 C 183.71 66.72 180.64 58.26 180 50.8 M 193.2 64 C 181.97 64.57 181.17 62.64 180 50.8 M 180 50.8 C 180.71 38.27 176.63 22.59 180 17.2 M 180 50.8 C 181.87 39.88 178.85 30.94 180 17.2 M 180 17.2 C 180.74 4.84 187.07 7.6 193.2 4 M 180 17.2 C 182.65 4.44 183.71 5.19 193.2 4" fill="none" stroke="#000000" stroke-linejoin="round" stroke-linecap="round" stroke-miterlimit="10" pointer-events="all" style="stroke: light-dark(rgb(0, 0, 0), rgb(255, 255, 255));"/></g><g style="filter: drop-shadow(light-dark(rgba(0, 0, 0, 0.25), rgba(237, 237, 237, 0.25)) 2px 3px 2px);"><g><switch><foreignObject style="overflow: visible; text-align: left;" pointer-events="none" width="100%" height="100%" requiredFeatures="http://www.w3.org/TR/SVG11/feature#Extensibility"><div xmlns="http://www.w3.org/1999/xhtml" style="display: flex; align-items: unsafe center; justify-content: unsafe center; width: 118px; height: 1px; padding-top: 34px; margin-left: 181px;"><div style="box-sizing: border-box; font-size: 0; text-align: center; color: #f7f7f7; "><div style="display: inline-block; font-size: 15px; font-family: 'Comic Sans MS'; color: light-dark(#f7f7f7, #ededed); line-height: 1.2; pointer-events: all; font-weight: bold; white-space: normal; word-wrap: normal; ">PORTFOLIO</div></div></div></foreignObject><text x="240" y="39" fill="light-dark(#f7f7f7, #ededed)" font-family="'Comic Sans MS'" font-size="15px" text-anchor="middle" font-weight="bold">PORTFOLIO</text></switch></g></g></g><g data-cell-id="bQjKKQ9CvDbdujaKF0kK-14"><g transform="translate(0.5,0.5)" style="filter: drop-shadow(light-dark(rgba(0, 0, 0, 0.25), rgba(237, 237, 237, 0.25)) 2px 3px 2px);"><rect x="180" y="124" width="120" height="60" rx="13.2" ry="13.2" fill="none" stroke="none" pointer-events="all"/><path d="M 193.2 124 C 224.22 125.27 252.33 122.17 286.8 124 C 291.87 122.95 305.08 133.32 300 137.2 C 296.31 146.64 298.1 159.53 300 170.8 C 298.86 175.69 293.78 188.65 286.8 184 C 253.67 185.35 227.74 185.37 193.2 184 C 183.24 178.78 175.79 175.64 180 170.8 C 182.23 161.6 180.11 146.29 180 137.2 C 177.7 130.11 185.84 119.01 193.2 124" fill="url(#drawio-svg-H3D5OLFwv0mKC2yJHsmF-gradient-light-dark_ef5b0b_ededed_-1-light-dark_867e7e_ededed_-1-s-0)" stroke="none" pointer-events="all" style="fill: url(&quot;#drawio-svg-H3D5OLFwv0mKC2yJHsmF-gradient-light-dark_ef5b0b_ededed_-1-light-dark_867e7e_ededed_-1-s-0&quot;);"/><path d="M 193.2 124 C 222.79 123.64 256.58 120.78 286.8 124 M 193.2 124 C 221.79 122.24 251.44 123.24 286.8 124 M 286.8 124 C 297.24 126.7 301.18 129.49 300 137.2 M 286.8 124 C 296.83 124.38 303.55 124.05 300 137.2 M 300 137.2 C 301.2 141.65 300.87 149.19 300 170.8 M 300 137.2 C 299.48 143.89 298.74 153.35 300 170.8 M 300 170.8 C 303.74 183.1 292.04 184.57 286.8 184 M 300 170.8 C 297.08 176.38 298.79 180.4 286.8 184 M 286.8 184 C 266.9 186.29 241.61 185.37 193.2 184 M 286.8 184 C 266.35 182.49 248.26 181.71 193.2 184 M 193.2 184 C 183.93 182.14 176.29 183.32 180 170.8 M 193.2 184 C 181.03 179.93 180.89 178.23 180 170.8 M 180 170.8 C 183.45 165.51 183.33 151.14 180 137.2 M 180 170.8 C 179.28 156.59 178.69 146.46 180 137.2 M 180 137.2 C 177.62 124.84 187.96 120.98 193.2 124 M 180 137.2 C 176.81 124.9 181.14 125.14 193.2 124" fill="none" stroke="#000000" stroke-linejoin="round" stroke-linecap="round" stroke-miterlimit="10" pointer-events="all" style="stroke: light-dark(rgb(0, 0, 0), rgb(255, 255, 255));"/></g><g style="filter: drop-shadow(light-dark(rgba(0, 0, 0, 0.25), rgba(237, 237, 237, 0.25)) 2px 3px 2px);"><g><switch><foreignObject style="overflow: visible; text-align: left;" pointer-events="none" width="100%" height="100%" requiredFeatures="http://www.w3.org/TR/SVG11/feature#Extensibility"><div xmlns="http://www.w3.org/1999/xhtml" style="display: flex; align-items: unsafe center; justify-content: unsafe center; width: 118px; height: 1px; padding-top: 154px; margin-left: 181px;"><div style="box-sizing: border-box; font-size: 0; text-align: center; color: #f7f7f7; "><div style="display: inline-block; font-size: 15px; font-family: 'Comic Sans MS'; color: light-dark(#f7f7f7, #ededed); line-height: 1.2; pointer-events: all; font-weight: bold; white-space: normal; word-wrap: normal; ">AI AGENTS</div></div></div></foreignObject><text x="240" y="159" fill="light-dark(#f7f7f7, #ededed)" font-family="'Comic Sans MS'" font-size="15px" text-anchor="middle" font-weight="bold">AI AGENTS</text></switch></g></g></g><g data-cell-id="bQjKKQ9CvDbdujaKF0kK-15"><g transform="translate(0.5,0.5)"><rect x="180" y="214" width="80" height="30" fill="none" stroke="none" transform="rotate(270,220,229)" pointer-events="all"/></g><g><g transform="rotate(270 220 229)"><switch><foreignObject style="overflow: visible; text-align: left;" pointer-events="none" width="100%" height="100%" requiredFeatures="http://www.w3.org/TR/SVG11/feature#Extensibility"><div xmlns="http://www.w3.org/1999/xhtml" style="display: flex; align-items: unsafe center; justify-content: unsafe center; width: 78px; height: 1px; padding-top: 229px; margin-left: 181px;"><div style="box-sizing: border-box; font-size: 0; text-align: center; color: #000000; "><div style="display: inline-block; font-size: 12px; font-family: 'Comic Sans MS'; color: light-dark(#000000, #ffffff); line-height: 1.2; pointer-events: all; font-weight: bold; white-space: normal; word-wrap: normal; ">TRY NOW</div></div></div></foreignObject><text x="220" y="233" fill="light-dark(#000000, #ffffff)" font-family="'Comic Sans MS'" font-size="12px" text-anchor="middle" font-weight="bold">TRY NOW</text></switch></g></g></g><g data-cell-id="bQjKKQ9CvDbdujaKF0kK-16"><g transform="translate(0.5,0.5)" style="filter: drop-shadow(light-dark(rgba(0, 0, 0, 0.25), rgba(237, 237, 237, 0.25)) 2px 3px 2px);"><rect x="180" y="284" width="120" height="60" rx="13.2" ry="13.2" fill="none" stroke="none" pointer-events="all"/><path d="M 193.2 284 C 226.91 283.95 261.12 284.62 286.8 284 C 300.45 285.7 295.21 293.18 300 297.2 C 301.67 302.37 299.12 317.21 300 330.8 C 303.01 334.79 300.7 342.34 286.8 344 C 248.58 344.88 210.92 341.16 193.2 344 C 185.16 341.33 176.91 343.07 180 330.8 C 174.11 317.91 182.3 312.71 180 297.2 C 184.55 287.75 183.58 288.73 193.2 284" fill="url(#drawio-svg-H3D5OLFwv0mKC2yJHsmF-gradient-light-dark_ef5b0b_ededed_-1-light-dark_867e7e_ededed_-1-s-0)" stroke="none" pointer-events="all" style="fill: url(&quot;#drawio-svg-H3D5OLFwv0mKC2yJHsmF-gradient-light-dark_ef5b0b_ededed_-1-light-dark_867e7e_ededed_-1-s-0&quot;);"/><path d="M 193.2 284 C 226.22 286.73 255.3 284.68 286.8 284 M 193.2 284 C 217.33 284.58 244.04 286.45 286.8 284 M 286.8 284 C 292.05 280.82 296.7 288 300 297.2 M 286.8 284 C 297.63 286.63 298.21 290.97 300 297.2 M 300 297.2 C 298.72 303.83 296.65 316.46 300 330.8 M 300 297.2 C 297.98 305.92 300.24 309.58 300 330.8 M 300 330.8 C 298.12 336.71 293.98 345.69 286.8 344 M 300 330.8 C 299.53 336.63 293.33 343.64 286.8 344 M 286.8 344 C 260.18 345.4 231.86 344.55 193.2 344 M 286.8 344 C 262.59 341.22 241.39 341.87 193.2 344 M 193.2 344 C 184.39 340.99 183.58 337.43 180 330.8 M 193.2 344 C 188.35 339.86 180.32 338.62 180 330.8 M 180 330.8 C 180.94 325.27 180.75 314.8 180 297.2 M 180 330.8 C 180.74 320.72 181.03 310.94 180 297.2 M 180 297.2 C 179.36 284.82 181.76 283.75 193.2 284 M 180 297.2 C 183.53 285.81 185.2 285.03 193.2 284" fill="none" stroke="#000000" stroke-linejoin="round" stroke-linecap="round" stroke-miterlimit="10" pointer-events="all" style="stroke: light-dark(rgb(0, 0, 0), rgb(255, 255, 255));"/></g><g style="filter: drop-shadow(light-dark(rgba(0, 0, 0, 0.25), rgba(237, 237, 237, 0.25)) 2px 3px 2px);"><g><switch><foreignObject style="overflow: visible; text-align: left;" pointer-events="none" width="100%" height="100%" requiredFeatures="http://www.w3.org/TR/SVG11/feature#Extensibility"><div xmlns="http://www.w3.org/1999/xhtml" style="display: flex; align-items: unsafe center; justify-content: unsafe center; width: 118px; height: 1px; padding-top: 314px; margin-left: 181px;"><div style="box-sizing: border-box; font-size: 0; text-align: center; color: #f7f7f7; "><div style="display: inline-block; font-size: 15px; font-family: 'Comic Sans MS'; color: light-dark(#f7f7f7, #ededed); line-height: 1.2; pointer-events: all; font-weight: bold; white-space: normal; word-wrap: normal; ">AGENT UI</div></div></div></foreignObject><text x="240" y="319" fill="light-dark(#f7f7f7, #ededed)" font-family="'Comic Sans MS'" font-size="15px" text-anchor="middle" font-weight="bold">AGENT UI</text></switch></g></g></g><g data-cell-id="bQjKKQ9CvDbdujaKF0kK-17"><g transform="translate(0.5,0.5)" style="filter: drop-shadow(light-dark(rgba(0, 0, 0, 0.25), rgba(237, 237, 237, 0.25)) 2px 3px 2px);"><rect x="340" y="284" width="120" height="60" rx="13.2" ry="13.2" fill="none" stroke="none" pointer-events="all"/><path d="M 353.2 284 C 388.25 280.31 425.52 282.86 446.8 284 C 459.14 287.08 461.48 293.11 460 297.2 C 465.3 312.55 460.57 323.89 460 330.8 C 465.08 334.34 458.55 344.78 446.8 344 C 420.99 341.66 392.43 347.28 353.2 344 C 346.12 342.6 343.07 341.19 340 330.8 C 337.54 318.3 339.68 309.2 340 297.2 C 342.37 292.18 348.05 282.39 353.2 284" fill="url(#drawio-svg-H3D5OLFwv0mKC2yJHsmF-gradient-light-dark_ef5b0b_ededed_-1-light-dark_867e7e_ededed_-1-s-0)" stroke="none" pointer-events="all" style="fill: url(&quot;#drawio-svg-H3D5OLFwv0mKC2yJHsmF-gradient-light-dark_ef5b0b_ededed_-1-light-dark_867e7e_ededed_-1-s-0&quot;);"/><path d="M 353.2 284 C 383.93 286.15 418.66 284.49 446.8 284 M 353.2 284 C 382.46 283.88 415.06 284.19 446.8 284 M 446.8 284 C 453.46 285.87 462.46 287.26 460 297.2 M 446.8 284 C 453.43 283.15 460.14 289.83 460 297.2 M 460 297.2 C 458.16 304.92 463.21 316.1 460 330.8 M 460 297.2 C 459.23 302.93 458.99 309.69 460 330.8 M 460 330.8 C 463.32 337.51 458.94 346.25 446.8 344 M 460 330.8 C 460.75 341.35 459.8 340.66 446.8 344 M 446.8 344 C 416.82 340.95 386.99 340.15 353.2 344 M 446.8 344 C 422.7 340.59 399.95 343.94 353.2 344 M 353.2 344 C 344.61 344.42 339.23 342.48 340 330.8 M 353.2 344 C 347.41 344.43 340.04 343.41 340 330.8 M 340 330.8 C 342.34 317.79 338.11 309.91 340 297.2 M 340 330.8 C 340.81 317.43 339.53 302.46 340 297.2 M 340 297.2 C 336.23 284.82 342.66 285.13 353.2 284 M 340 297.2 C 337.69 286.27 342.62 284.97 353.2 284" fill="none" stroke="#000000" stroke-linejoin="round" stroke-linecap="round" stroke-miterlimit="10" pointer-events="all" style="stroke: light-dark(rgb(0, 0, 0), rgb(255, 255, 255));"/></g><g style="filter: drop-shadow(light-dark(rgba(0, 0, 0, 0.25), rgba(237, 237, 237, 0.25)) 2px 3px 2px);"><g><switch><foreignObject style="overflow: visible; text-align: left;" pointer-events="none" width="100%" height="100%" requiredFeatures="http://www.w3.org/TR/SVG11/feature#Extensibility"><div xmlns="http://www.w3.org/1999/xhtml" style="display: flex; align-items: unsafe center; justify-content: unsafe center; width: 118px; height: 1px; padding-top: 314px; margin-left: 341px;"><div style="box-sizing: border-box; font-size: 0; text-align: center; color: #f7f7f7; "><div style="display: inline-block; font-size: 15px; font-family: 'Comic Sans MS'; color: light-dark(#f7f7f7, #ededed); line-height: 1.2; pointer-events: all; font-weight: bold; white-space: normal; word-wrap: normal; ">BOOMI INTEGRATION</div></div></div></foreignObject><text x="400" y="319" fill="light-dark(#f7f7f7, #ededed)" font-family="'Comic Sans MS'" font-size="15px" text-anchor="middle" font-weight="bold">BOOMI INTEGRATION</text></switch></g></g></g><g data-cell-id="bQjKKQ9CvDbdujaKF0kK-20"><g style="filter: drop-shadow(light-dark(rgba(0, 0, 0, 0.25), rgba(237, 237, 237, 0.25)) 2px 3px 2px);"><path d="M 300 314 L 331.76 314" fill="none" stroke="#000000" stroke-width="2" stroke-miterlimit="10" pointer-events="stroke" stroke-dasharray="8" style="stroke: light-dark(rgb(0, 0, 0), rgb(255, 255, 255)); animation: 500ms linear 0s infinite normal none running ge-flow-animation-qIgXZG3Ro4BcdYmjVpFU; stroke-dashoffset: 16;"/><path d="M 337.76 314 L 329.76 318 L 331.76 314 L 329.76 310 Z" fill="#000000" stroke="#000000" stroke-width="2" stroke-miterlimit="10" pointer-events="all" style="fill: light-dark(rgb(0, 0, 0), rgb(255, 255, 255)); stroke: light-dark(rgb(0, 0, 0), rgb(255, 255, 255));"/></g></g><g data-cell-id="bQjKKQ9CvDbdujaKF0kK-21"><g transform="translate(0.5,0.5)" style="filter: drop-shadow(light-dark(rgba(0, 0, 0, 0.25), rgba(237, 237, 237, 0.25)) 2px 3px 2px);"><rect x="500" y="374" width="120" height="60" rx="13.2" ry="13.2" fill="none" stroke="none" pointer-events="all"/><path d="M 513.2 374 C 536.82 371.09 560.71 375.87 606.8 374 C 620.02 377.91 621.3 381.37 620 387.2 C 624.26 392.83 621.27 410.67 620 420.8 C 620.96 424.27 620.99 428.67 606.8 434 C 573.63 437.76 555.5 430.32 513.2 434 C 507.76 430.86 500.26 428.93 500 420.8 C 495.13 413.68 503 403.27 500 387.2 C 503.94 380.72 507.8 370.65 513.2 374" fill="url(#drawio-svg-H3D5OLFwv0mKC2yJHsmF-gradient-light-dark_ef5b0b_ededed_-1-light-dark_867e7e_ededed_-1-s-0)" stroke="none" pointer-events="all" style="fill: url(&quot;#drawio-svg-H3D5OLFwv0mKC2yJHsmF-gradient-light-dark_ef5b0b_ededed_-1-light-dark_867e7e_ededed_-1-s-0&quot;);"/><path d="M 513.2 374 C 542.8 372.22 574.69 372.53 606.8 374 M 513.2 374 C 546.26 370.54 577.62 371.75 606.8 374 M 606.8 374 C 616.59 374.33 622.4 374.63 620 387.2 M 606.8 374 C 618.76 378.21 622.4 379.01 620 387.2 M 620 387.2 C 618.63 400.71 617.79 410.13 620 420.8 M 620 387.2 C 619.83 399.77 621.06 409.43 620 420.8 M 620 420.8 C 617.08 431.58 615.15 434.24 606.8 434 M 620 420.8 C 623.69 429.89 615.99 429.77 606.8 434 M 606.8 434 C 578.22 431.78 556.05 431.99 513.2 434 M 606.8 434 C 583.03 430.46 558.94 433.58 513.2 434 M 513.2 434 C 502.27 432.05 502.44 430.87 500 420.8 M 513.2 434 C 502.34 438.15 502.22 433.62 500 420.8 M 500 420.8 C 502.88 414.71 501.72 401.49 500 387.2 M 500 420.8 C 501.16 412.32 500.79 398.86 500 387.2 M 500 387.2 C 498.03 374.64 501.08 377.74 513.2 374 M 500 387.2 C 498.87 378.52 502.71 373.6 513.2 374" fill="none" stroke="#000000" stroke-linejoin="round" stroke-linecap="round" stroke-miterlimit="10" pointer-events="all" style="stroke: light-dark(rgb(0, 0, 0), rgb(255, 255, 255));"/></g><g style="filter: drop-shadow(light-dark(rgba(0, 0, 0, 0.25), rgba(237, 237, 237, 0.25)) 2px 3px 2px);"><g><switch><foreignObject style="overflow: visible; text-align: left;" pointer-events="none" width="100%" height="100%" requiredFeatures="http://www.w3.org/TR/SVG11/feature#Extensibility"><div xmlns="http://www.w3.org/1999/xhtml" style="display: flex; align-items: unsafe center; justify-content: unsafe center; width: 118px; height: 1px; padding-top: 404px; margin-left: 501px;"><div style="box-sizing: border-box; font-size: 0; text-align: center; color: #f7f7f7; "><div style="display: inline-block; font-size: 15px; font-family: 'Comic Sans MS'; color: light-dark(#f7f7f7, #ededed); line-height: 1.2; pointer-events: all; font-weight: bold; white-space: normal; word-wrap: normal; ">BOOMI AI</div></div></div></foreignObject><text x="560" y="409" fill="light-dark(#f7f7f7, #ededed)" font-family="'Comic Sans MS'" font-size="15px" text-anchor="middle" font-weight="bold">BOOMI AI</text></switch></g></g></g><g data-cell-id="bQjKKQ9CvDbdujaKF0kK-22"><g style="filter: drop-shadow(light-dark(rgba(0, 0, 0, 0.25), rgba(237, 237, 237, 0.25)) 2px 3px 2px);"><path d="M 460 314 L 560 314 L 560 365.76" fill="none" stroke="#000000" stroke-width="2" stroke-miterlimit="10" pointer-events="stroke" stroke-dasharray="8" style="stroke: light-dark(rgb(0, 0, 0), rgb(255, 255, 255)); animation: 500ms linear 0s infinite normal none running ge-flow-animation-qIgXZG3Ro4BcdYmjVpFU; stroke-dashoffset: 16;"/><path d="M 560 371.76 L 556 363.76 L 560 365.76 L 564 363.76 Z" fill="#000000" stroke="#000000" stroke-width="2" stroke-miterlimit="10" pointer-events="all" style="fill: light-dark(rgb(0, 0, 0), rgb(255, 255, 255)); stroke: light-dark(rgb(0, 0, 0), rgb(255, 255, 255));"/></g></g><g data-cell-id="bQjKKQ9CvDbdujaKF0kK-23"><g transform="translate(0.5,0.5)" style="filter: drop-shadow(light-dark(rgba(0, 0, 0, 0.25), rgba(237, 237, 237, 0.25)) 2px 3px 2px);"><rect x="340" y="484" width="120" height="60" rx="13.2" ry="13.2" fill="none" stroke="none" pointer-events="all"/><path d="M 353.2 484 C 379.51 479.77 409.5 477.11 446.8 484 C 457.4 479.46 462.63 491.23 460 497.2 C 460.3 505.28 464.17 520.6 460 530.8 C 465.11 544.57 456.71 543.55 446.8 544 C 408.54 541.33 378.68 541.35 353.2 544 C 349.68 543.41 341.38 535.17 340 530.8 C 340.09 524.47 335.88 506.25 340 497.2 C 339.59 488.36 345.54 479.17 353.2 484" fill="url(#drawio-svg-H3D5OLFwv0mKC2yJHsmF-gradient-light-dark_ef5b0b_ededed_-1-light-dark_867e7e_ededed_-1-s-0)" stroke="none" pointer-events="all" style="fill: url(&quot;#drawio-svg-H3D5OLFwv0mKC2yJHsmF-gradient-light-dark_ef5b0b_ededed_-1-light-dark_867e7e_ededed_-1-s-0&quot;);"/><path d="M 353.2 484 C 386.23 485.32 421.42 486.42 446.8 484 M 353.2 484 C 377.8 482.88 406.22 484.96 446.8 484 M 446.8 484 C 459.4 486.45 457.92 491.14 460 497.2 M 446.8 484 C 459.56 481.26 457.06 486.73 460 497.2 M 460 497.2 C 457.5 504.89 462.91 519.41 460 530.8 M 460 497.2 C 462.33 507.8 458.56 519.65 460 530.8 M 460 530.8 C 459.46 543.19 457.08 545.35 446.8 544 M 460 530.8 C 456.93 540.14 459.73 543.01 446.8 544 M 446.8 544 C 419.5 540.88 386.3 541.18 353.2 544 M 446.8 544 C 419.27 546.94 392.07 547.48 353.2 544 M 353.2 544 C 342.72 540.9 341.74 542.98 340 530.8 M 353.2 544 C 340.47 548.08 341.66 544.01 340 530.8 M 340 530.8 C 340.37 524.47 339.13 515.15 340 497.2 M 340 530.8 C 338.62 522.46 339.13 513.34 340 497.2 M 340 497.2 C 339.77 484.62 342.87 482.51 353.2 484 M 340 497.2 C 336.39 489.43 346.76 483.49 353.2 484" fill="none" stroke="#000000" stroke-linejoin="round" stroke-linecap="round" stroke-miterlimit="10" pointer-events="all" style="stroke: light-dark(rgb(0, 0, 0), rgb(255, 255, 255));"/></g><g style="filter: drop-shadow(light-dark(rgba(0, 0, 0, 0.25), rgba(237, 237, 237, 0.25)) 2px 3px 2px);"><g><switch><foreignObject style="overflow: visible; text-align: left;" pointer-events="none" width="100%" height="100%" requiredFeatures="http://www.w3.org/TR/SVG11/feature#Extensibility"><div xmlns="http://www.w3.org/1999/xhtml" style="display: flex; align-items: unsafe center; justify-content: unsafe center; width: 118px; height: 1px; padding-top: 514px; margin-left: 341px;"><div style="box-sizing: border-box; font-size: 0; text-align: center; color: #f7f7f7; "><div style="display: inline-block; font-size: 15px; font-family: 'Comic Sans MS'; color: light-dark(#f7f7f7, #ededed); line-height: 1.2; pointer-events: all; font-weight: bold; white-space: normal; word-wrap: normal; ">BOOMI INTEGRATION</div></div></div></foreignObject><text x="400" y="519" fill="light-dark(#f7f7f7, #ededed)" font-family="'Comic Sans MS'" font-size="15px" text-anchor="middle" font-weight="bold">BOOMI INTEGRATION</text></switch></g></g></g><g data-cell-id="bQjKKQ9CvDbdujaKF0kK-25"><g style="filter: drop-shadow(light-dark(rgba(0, 0, 0, 0.25), rgba(237, 237, 237, 0.25)) 2px 3px 2px);"><path d="M 560 434 L 560 514 L 468.24 514" fill="none" stroke="#000000" stroke-width="2" stroke-miterlimit="10" pointer-events="stroke" stroke-dasharray="8" style="stroke: light-dark(rgb(0, 0, 0), rgb(255, 255, 255)); animation: 500ms linear 0s infinite normal none running ge-flow-animation-qIgXZG3Ro4BcdYmjVpFU; stroke-dashoffset: 16;"/><path d="M 462.24 514 L 470.24 510 L 468.24 514 L 470.24 518 Z" fill="#000000" stroke="#000000" stroke-width="2" stroke-miterlimit="10" pointer-events="all" style="fill: light-dark(rgb(0, 0, 0), rgb(255, 255, 255)); stroke: light-dark(rgb(0, 0, 0), rgb(255, 255, 255));"/></g></g><g data-cell-id="bQjKKQ9CvDbdujaKF0kK-26"><g style="filter: drop-shadow(light-dark(rgba(0, 0, 0, 0.25), rgba(237, 237, 237, 0.25)) 2px 3px 2px);"><path d="M 340 514 L 240 514 L 240 352.24" fill="none" stroke="#000000" stroke-width="2" stroke-miterlimit="10" pointer-events="stroke" stroke-dasharray="8" style="stroke: light-dark(rgb(0, 0, 0), rgb(255, 255, 255)); animation: 500ms linear 0s infinite normal none running ge-flow-animation-qIgXZG3Ro4BcdYmjVpFU; stroke-dashoffset: 16;"/><path d="M 240 346.24 L 244 354.24 L 240 352.24 L 236 354.24 Z" fill="#000000" stroke="#000000" stroke-width="2" stroke-miterlimit="10" pointer-events="all" style="fill: light-dark(rgb(0, 0, 0), rgb(255, 255, 255)); stroke: light-dark(rgb(0, 0, 0), rgb(255, 255, 255));"/></g></g><g data-cell-id="bQjKKQ9CvDbdujaKF0kK-27"><g transform="translate(0.5,0.5)"><rect x="470" y="274" width="90" height="40" fill="none" stroke="none" pointer-events="all"/></g><g><g><switch><foreignObject style="overflow: visible; text-align: left;" pointer-events="none" width="100%" height="100%" requiredFeatures="http://www.w3.org/TR/SVG11/feature#Extensibility"><div xmlns="http://www.w3.org/1999/xhtml" style="display: flex; align-items: unsafe center; justify-content: unsafe center; width: 88px; height: 1px; padding-top: 294px; margin-left: 471px;"><div style="box-sizing: border-box; font-size: 0; text-align: center; color: #000000; "><div style="display: inline-block; font-size: 12px; font-family: Helvetica; color: light-dark(#000000, #ffffff); line-height: 1.2; pointer-events: all; white-space: normal; word-wrap: normal; "><b><font face="Comic Sans MS">FORMAT PROMPT</font></b></div></div></div></foreignObject><text x="515" y="298" fill="light-dark(#000000, #ffffff)" font-family="Helvetica" font-size="12px" text-anchor="middle">FORMAT PROMPT</text></switch></g></g></g><g data-cell-id="bQjKKQ9CvDbdujaKF0kK-28"><g transform="translate(0.5,0.5)"><rect x="470" y="464" width="90" height="40" fill="none" stroke="none" pointer-events="all"/></g><g><g><switch><foreignObject style="overflow: visible; text-align: left;" pointer-events="none" width="100%" height="100%" requiredFeatures="http://www.w3.org/TR/SVG11/feature#Extensibility"><div xmlns="http://www.w3.org/1999/xhtml" style="display: flex; align-items: unsafe center; justify-content: unsafe center; width: 88px; height: 1px; padding-top: 484px; margin-left: 471px;"><div style="box-sizing: border-box; font-size: 0; text-align: center; color: #000000; "><div style="display: inline-block; font-size: 12px; font-family: Helvetica; color: light-dark(#000000, #ffffff); line-height: 1.2; pointer-events: all; white-space: normal; word-wrap: normal; "><b><font face="Comic Sans MS">RAW RESPONSE</font></b></div></div></div></foreignObject><text x="515" y="488" fill="light-dark(#000000, #ffffff)" font-family="Helvetica" font-size="12px" text-anchor="middle">RAW RESPONSE</text></switch></g></g></g><g data-cell-id="bQjKKQ9CvDbdujaKF0kK-29"><g transform="translate(0.5,0.5)"><rect x="130" y="414" width="170" height="40" fill="none" stroke="none" transform="rotate(270,215,434)" pointer-events="all"/></g><g><g transform="rotate(270 215 434)"><switch><foreignObject style="overflow: visible; text-align: left;" pointer-events="none" width="100%" height="100%" requiredFeatures="http://www.w3.org/TR/SVG11/feature#Extensibility"><div xmlns="http://www.w3.org/1999/xhtml" style="display: flex; align-items: unsafe center; justify-content: unsafe center; width: 168px; height: 1px; padding-top: 434px; margin-left: 131px;"><div style="box-sizing: border-box; font-size: 0; text-align: center; color: #000000; "><div style="display: inline-block; font-size: 12px; font-family: Helvetica; color: light-dark(#000000, #ffffff); line-height: 1.2; pointer-events: all; white-space: normal; word-wrap: normal; "><b><font face="Comic Sans MS">BEAUTIFY RESPONSE</font></b></div></div></div></foreignObject><text x="215" y="438" fill="light-dark(#000000, #ffffff)" font-family="Helvetica" font-size="12px" text-anchor="middle">BEAUTIFY RESPONSE</text></switch></g></g></g></g></g></g><switch><g requiredFeatures="http://www.w3.org/TR/SVG11/feature#Extensibility"/><a transform="translate(0,-5)" xlink:href="https://www.drawio.com/doc/faq/svg-export-text-problems" target="_blank"><text text-anchor="middle" font-size="10px" x="50%" y="100%">Text is not SVG - cannot display</text></a></switch></svg>